# xmcd
#
# Track frame offsets:
#	150
#	13663
#	29343
#	41707
#
# Disc length: 744 seconds
#
# Revision: 1
# Processed by: cddbd v1.5.2PL0 Copyright (c) Steve Scherf et al.
# Submitted via: EasyCDDAExtractor 6.5.0.1
#
DISCID=2a02e604
DTITLE=The Bosshoss - I say a little prayer
DYEAR=2006
DGENRE=Country
TTITLE0=I say a little prayer
TTITLE1=You'll never walk alone
TTITLE2=Hell Yeah
TTITLE3=Isay a little prayer campfire
EXTD=YEAR: 1994
EXTT0=
EXTT1=
EXTT2=
EXTT3=
PLAYORDER=
